<svg xmlns="http://www.w3.org/2000/svg" viewBox="0 0 1200 1200" width="1200" height="1200">
  <defs>
    <!-- Gradients -->
    <linearGradient id="bgGrad" x1="0%" y1="0%" x2="100%" y2="100%">
      <stop offset="0%" stop-color="#060911" />
      <stop offset="50%" stop-color="#0b1120" />
      <stop offset="100%" stop-color="#040711" />
    </linearGradient>

    <linearGradient id="emeraldGrad" x1="0%" y1="0%" x2="100%" y2="100%">
      <stop offset="0%" stop-color="#10b981" />
      <stop offset="100%" stop-color="#059669" />
    </linearGradient>

    <linearGradient id="blueGrad" x1="0%" y1="0%" x2="100%" y2="100%">
      <stop offset="0%" stop-color="#38bdf8" />
      <stop offset="100%" stop-color="#2563eb" />
    </linearGradient>

    <linearGradient id="redGrad" x1="0%" y1="0%" x2="100%" y2="100%">
      <stop offset="0%" stop-color="#f43f5e" />
      <stop offset="100%" stop-color="#e11d48" />
    </linearGradient>

    <linearGradient id="cardGrad" x1="0%" y1="0%" x2="100%" y2="100%">
      <stop offset="0%" stop-color="#1e293b" stop-opacity="0.75" />
      <stop offset="100%" stop-color="#0f172a" stop-opacity="0.85" />
    </linearGradient>

    <linearGradient id="cardBorder" x1="0%" y1="0%" x2="100%" y2="100%">
      <stop offset="0%" stop-color="#334155" stop-opacity="0.8" />
      <stop offset="100%" stop-color="#1e293b" stop-opacity="0.3" />
    </linearGradient>

    <radialGradient id="glowG" cx="50%" cy="10%" r="60%">
      <stop offset="0%" stop-color="#10b981" stop-opacity="0.12" />
      <stop offset="100%" stop-color="#10b981" stop-opacity="0" />
    </radialGradient>

    <radialGradient id="glowB" cx="90%" cy="80%" r="50%">
      <stop offset="0%" stop-color="#3b82f6" stop-opacity="0.1" />
      <stop offset="100%" stop-color="#3b82f6" stop-opacity="0" />
    </radialGradient>

    <!-- Filters for Glow -->
    <filter id="emeraldGlow" x="-20%" y="-20%" width="140%" height="140%">
      <feDropShadow dx="0" dy="4" stdDeviation="12" flood-color="#10b981" flood-opacity="0.3" />
    </filter>
  </defs>

  <style>
    @import url('https://fonts.googleapis.com/css2?family=Plus+Jakarta+Sans:wght@400;500;600;700;800&amp;family=JetBrains+Mono:wght@500;700&amp;display=swap');
    
    text {
      font-family: 'Plus Jakarta Sans', -apple-system, BlinkMacSystemFont, 'Segoe UI', Roboto, sans-serif;
    }
    .mono {
      font-family: 'JetBrains Mono', monospace;
    }
  </style>

  <!-- Background -->
  <rect width="1200" height="1200" fill="url(#bgGrad)" />
  <rect width="1200" height="1200" fill="url(#glowG)" />
  <rect width="1200" height="1200" fill="url(#glowB)" />

  <!-- Subtle Grid Lines -->
  <g opacity="0.04" stroke="#ffffff" stroke-width="1">
    <line x1="100" y1="0" x2="100" y2="1200" />
    <line x1="300" y1="0" x2="300" y2="1200" />
    <line x1="500" y1="0" x2="500" y2="1200" />
    <line x1="700" y1="0" x2="700" y2="1200" />
    <line x1="900" y1="0" x2="900" y2="1200" />
    <line x1="1100" y1="0" x2="1100" y2="1200" />
    <line x1="0" y1="200" x2="1200" y2="200" />
    <line x1="0" y1="400" x2="1200" y2="400" />
    <line x1="0" y1="600" x2="1200" y2="600" />
    <line x1="0" y1="800" x2="1200" y2="800" />
    <line x1="0" y1="1000" x2="1200" y2="1000" />
  </g>

  <!-- ==================== HEADER SECTION ==================== -->
  <!-- Top Category Pill -->
  <g transform="translate(68, 64)">
    <rect width="320" height="34" rx="17" fill="#10b981" fill-opacity="0.12" stroke="#10b981" stroke-opacity="0.4" stroke-width="1" />
    <circle cx="20" cy="17" r="5" fill="#10b981" />
    <text x="36" y="22" font-size="13" font-weight="700" fill="#34d399" letter-spacing="1.5">B2B DELIVERABILITY BLUEPRINT</text>
  </g>

  <!-- Main Headline -->
  <text x="68" y="152" font-size="44" font-weight="800" fill="#ffffff" letter-spacing="-1">The 4-Week Cold Email Warmup Framework</text>
  <text x="68" y="190" font-size="20" font-weight="500" fill="#94a3b8">How to guarantee 99%+ Primary Inbox placement and protect domain reputation.</text>

  <!-- Danger / Anti-Pattern Callout Banner -->
  <g transform="translate(68, 222)">
    <rect width="1064" height="64" rx="14" fill="#881337" fill-opacity="0.25" stroke="#f43f5e" stroke-opacity="0.35" stroke-width="1.5" />
    
    <!-- Warning Icon -->
    <g transform="translate(24, 20)">
      <path d="M12 2L1 21h22L12 2zm0 4l7.5 13H4.5L12 6zm-1 5v4h2v-4h-2zm0 6v2h2v-2h-2z" fill="#f43f5e" />
    </g>
    
    <text x="62" y="38" font-size="17" font-weight="700" fill="#fca5a5">CRITICAL MISTAKE:</text>
    <text x="240" y="38" font-size="16" font-weight="500" fill="#fecdd3">Neutral Domain = High-Risk Reputation. Blasting 500 emails on Day 2 burns your domain in hours.</text>
  </g>

  <!-- ==================== 4 CORE STEPS GRID ==================== -->
  
  <!-- Step 1: DNS Hardening -->
  <g transform="translate(68, 314)">
    <rect width="516" height="310" rx="16" fill="url(#cardGrad)" stroke="url(#cardBorder)" stroke-width="1.5" />
    
    <!-- Step Header -->
    <rect x="24" y="24" width="36" height="36" rx="10" fill="#10b981" fill-opacity="0.15" stroke="#10b981" stroke-opacity="0.3" stroke-width="1" />
    <text x="42" y="48" font-size="18" font-weight="800" fill="#10b981" text-anchor="middle">1</text>
    <text x="74" y="48" font-size="21" font-weight="700" fill="#ffffff">DNS Technical Hardening</text>

    <text x="24" y="86" font-size="14" font-weight="500" fill="#94a3b8">The 4 non-negotiable authentication records:</text>

    <!-- 4 Sub-Items -->
    <g transform="translate(24, 106)">
      <!-- SPF -->
      <rect width="224" height="66" rx="10" fill="#0f172a" stroke="#334155" stroke-width="1" />
      <circle cx="20" cy="22" r="6" fill="#10b981" />
      <text x="34" y="26" font-size="14" font-weight="700" fill="#f8fafc">SPF Record</text>
      <text x="34" y="48" font-size="12" font-weight="500" fill="#64748b">Authorizes sender IPs</text>

      <!-- DKIM -->
      <g transform="translate(244, 0)">
        <rect width="224" height="66" rx="10" fill="#0f172a" stroke="#334155" stroke-width="1" />
        <circle cx="20" cy="22" r="6" fill="#10b981" />
        <text x="34" y="26" font-size="14" font-weight="700" fill="#f8fafc">DKIM Signature</text>
        <text x="34" y="48" font-size="12" font-weight="500" fill="#64748b">Cryptographic headers</text>
      </g>

      <!-- DMARC -->
      <g transform="translate(0, 78)">
        <rect width="224" height="66" rx="10" fill="#0f172a" stroke="#334155" stroke-width="1" />
        <circle cx="20" cy="22" r="6" fill="#10b981" />
        <text x="34" y="26" font-size="14" font-weight="700" fill="#f8fafc">DMARC Policy</text>
        <text x="34" y="48" font-size="12" font-weight="500" fill="#64748b">Spoofing governance</text>
      </g>

      <!-- Custom Tracking -->
      <g transform="translate(244, 78)">
        <rect width="224" height="66" rx="10" fill="#0f172a" stroke="#334155" stroke-width="1" />
        <circle cx="20" cy="22" r="6" fill="#38bdf8" />
        <text x="34" y="26" font-size="14" font-weight="700" fill="#f8fafc">Custom Tracking</text>
        <text x="34" y="48" font-size="12" font-weight="500" fill="#64748b">Protects link safety</text>
      </g>
    </g>
  </g>

  <!-- Step 2: Peer-to-Peer Warmup -->
  <g transform="translate(616, 314)">
    <rect width="516" height="310" rx="16" fill="url(#cardGrad)" stroke="url(#cardBorder)" stroke-width="1.5" />
    
    <!-- Step Header -->
    <rect x="24" y="24" width="36" height="36" rx="10" fill="#38bdf8" fill-opacity="0.15" stroke="#38bdf8" stroke-opacity="0.3" stroke-width="1" />
    <text x="42" y="48" font-size="18" font-weight="800" fill="#38bdf8" text-anchor="middle">2</text>
    <text x="74" y="48" font-size="21" font-weight="700" fill="#ffffff">Automated P2P Warmup Network</text>

    <text x="24" y="86" font-size="14" font-weight="500" fill="#94a3b8">Signals high commercial trust to Gmail &amp; Outlook algorithms:</text>

    <!-- Warmup Signal Features -->
    <g transform="translate(24, 106)">
      <!-- Signal 1 -->
      <rect width="468" height="54" rx="10" fill="#0f172a" stroke="#334155" stroke-width="1" />
      <circle cx="24" cy="27" r="7" fill="#10b981" fill-opacity="0.2" stroke="#10b981" stroke-width="1.5" />
      <path d="M21 27l2 2 4-4" stroke="#10b981" stroke-width="1.5" fill="none" />
      <text x="44" y="32" font-size="14" font-weight="600" fill="#e2e8f0">Authentic Human-Like Opens &amp; Read Time</text>

      <!-- Signal 2 -->
      <g transform="translate(0, 64)">
        <rect width="468" height="54" rx="10" fill="#0f172a" stroke="#334155" stroke-width="1" />
        <circle cx="24" cy="27" r="7" fill="#10b981" fill-opacity="0.2" stroke="#10b981" stroke-width="1.5" />
        <path d="M21 27l2 2 4-4" stroke="#10b981" stroke-width="1.5" fill="none" />
        <text x="44" y="32" font-size="14" font-weight="600" fill="#e2e8f0">Automated Spam-Folder Rescues (Important tag)</text>
      </g>

      <!-- Signal 3 -->
      <g transform="translate(0, 128)">
        <rect width="468" height="54" rx="10" fill="#0f172a" stroke="#334155" stroke-width="1" />
        <circle cx="24" cy="27" r="7" fill="#38bdf8" fill-opacity="0.2" stroke="#38bdf8" stroke-width="1.5" />
        <path d="M21 27l2 2 4-4" stroke="#38bdf8" stroke-width="1.5" fill="none" />
        <text x="44" y="32" font-size="14" font-weight="600" fill="#e2e8f0">Multi-Turn Conversational Reply Threads</text>
      </g>
    </g>
  </g>

  <!-- Step 3: 21-Day Volume Ramp (Wide Visual Card) -->
  <g transform="translate(68, 650)">
    <rect width="716" height="310" rx="16" fill="url(#cardGrad)" stroke="url(#cardBorder)" stroke-width="1.5" />
    
    <!-- Step Header -->
    <rect x="24" y="24" width="36" height="36" rx="10" fill="#a855f7" fill-opacity="0.15" stroke="#a855f7" stroke-opacity="0.3" stroke-width="1" />
    <text x="42" y="48" font-size="18" font-weight="800" fill="#c084fc" text-anchor="middle">3</text>
    <text x="74" y="48" font-size="21" font-weight="700" fill="#ffffff">Strict 21-Day Volume Ramp Schedule</text>

    <!-- Ramp Timeline Grid -->
    <g transform="translate(24, 90)">
      
      <!-- Week 1 -->
      <g transform="translate(0, 0)">
        <rect width="155" height="180" rx="12" fill="#0f172a" stroke="#334155" stroke-width="1" />
        <text x="77" y="32" font-size="13" font-weight="700" fill="#64748b" text-anchor="middle">WEEK 1</text>
        <text x="77" y="70" font-size="30" font-weight="800" fill="#38bdf8" text-anchor="middle" class="mono">5</text>
        <text x="77" y="90" font-size="12" font-weight="600" fill="#94a3b8" text-anchor="middle">emails / day</text>
        <rect x="20" y="112" width="115" height="48" rx="6" fill="#1e293b" />
        <text x="77" y="132" font-size="11" font-weight="700" fill="#38bdf8" text-anchor="middle">100% WARMUP</text>
        <text x="77" y="148" font-size="10" font-weight="500" fill="#64748b" text-anchor="middle">0 Outbound Leads</text>
      </g>

      <!-- Week 2 -->
      <g transform="translate(170, 0)">
        <rect width="155" height="180" rx="12" fill="#0f172a" stroke="#334155" stroke-width="1" />
        <text x="77" y="32" font-size="13" font-weight="700" fill="#64748b" text-anchor="middle">WEEK 2</text>
        <text x="77" y="70" font-size="30" font-weight="800" fill="#34d399" text-anchor="middle" class="mono">20</text>
        <text x="77" y="90" font-size="12" font-weight="600" fill="#94a3b8" text-anchor="middle">emails / day</text>
        <rect x="20" y="112" width="115" height="48" rx="6" fill="#1e293b" />
        <text x="77" y="132" font-size="11" font-weight="700" fill="#34d399" text-anchor="middle">10 Warm + 10 B2B</text>
        <text x="77" y="148" font-size="10" font-weight="500" fill="#64748b" text-anchor="middle">Manual ICP Batch</text>
      </g>

      <!-- Week 3 -->
      <g transform="translate(340, 0)">
        <rect width="155" height="180" rx="12" fill="#0f172a" stroke="#334155" stroke-width="1" />
        <text x="77" y="32" font-size="13" font-weight="700" fill="#64748b" text-anchor="middle">WEEK 3</text>
        <text x="77" y="70" font-size="30" font-weight="800" fill="#fbbf24" text-anchor="middle" class="mono">40</text>
        <text x="77" y="90" font-size="12" font-weight="600" fill="#94a3b8" text-anchor="middle">emails / day</text>
        <rect x="20" y="112" width="115" height="48" rx="6" fill="#1e293b" />
        <text x="77" y="132" font-size="11" font-weight="700" fill="#fbbf24" text-anchor="middle">15 Warm + 25 B2B</text>
        <text x="77" y="148" font-size="10" font-weight="500" fill="#64748b" text-anchor="middle">Ramping Sequences</text>
      </g>

      <!-- Week 4+ Cap -->
      <g transform="translate(510, 0)">
        <rect width="155" height="180" rx="12" fill="#0f172a" stroke="#10b981" stroke-width="1.5" />
        <text x="77" y="32" font-size="13" font-weight="700" fill="#10b981" text-anchor="middle">WEEK 4+ (CAP)</text>
        <text x="77" y="70" font-size="28" font-weight="800" fill="#10b981" text-anchor="middle" class="mono">45-50</text>
        <text x="77" y="90" font-size="12" font-weight="600" fill="#94a3b8" text-anchor="middle">max / mailbox</text>
        <rect x="20" y="112" width="115" height="48" rx="6" fill="#064e3b" fill-opacity="0.5" />
        <text x="77" y="132" font-size="11" font-weight="700" fill="#34d399" text-anchor="middle">SAFE CEILING</text>
        <text x="77" y="148" font-size="10" font-weight="500" fill="#a7f3d0" text-anchor="middle">Guaranteed Inbox</text>
      </g>
    </g>
  </g>

  <!-- Step 4: Copywriting Sanitation -->
  <g transform="translate(808, 650)">
    <rect width="324" height="310" rx="16" fill="url(#cardGrad)" stroke="url(#cardBorder)" stroke-width="1.5" />
    
    <!-- Step Header -->
    <rect x="24" y="24" width="36" height="36" rx="10" fill="#f59e0b" fill-opacity="0.15" stroke="#f59e0b" stroke-opacity="0.3" stroke-width="1" />
    <text x="42" y="48" font-size="18" font-weight="800" fill="#fbbf24" text-anchor="middle">4</text>
    <text x="74" y="48" font-size="20" font-weight="700" fill="#ffffff">Copy Sanitation</text>

    <!-- Checklist -->
    <g transform="translate(24, 90)">
      <!-- Rule 1 -->
      <rect width="276" height="50" rx="8" fill="#0f172a" stroke="#334155" stroke-width="1" />
      <text x="16" y="24" font-size="12" font-weight="700" fill="#f43f5e">&#x2715; NO Spam Triggers</text>
      <text x="16" y="40" font-size="11" font-weight="500" fill="#64748b">Strip financial hype &amp; urgency</text>

      <!-- Rule 2 -->
      <g transform="translate(0, 60)">
        <rect width="276" height="50" rx="8" fill="#0f172a" stroke="#334155" stroke-width="1" />
        <text x="16" y="24" font-size="12" font-weight="700" fill="#10b981">&#x2713; Plain Text Priority</text>
        <text x="16" y="40" font-size="11" font-weight="500" fill="#64748b">Zero heavy HTML or image traps</text>
      </g>

      <!-- Rule 3 -->
      <g transform="translate(0, 120)">
        <rect width="276" height="50" rx="8" fill="#0f172a" stroke="#334155" stroke-width="1" />
        <text x="16" y="24" font-size="12" font-weight="700" fill="#38bdf8">&#x2713; Peer-to-Peer Tone</text>
        <text x="16" y="40" font-size="11" font-weight="500" fill="#64748b">Direct operational pain point hooks</text>
      </g>
    </g>
  </g>

  <!-- ==================== DELIVERABILITY KPIS BOTTOM BAR ==================== -->
  <g transform="translate(68, 984)">
    <rect width="1064" height="106" rx="16" fill="#091224" stroke="#1e293b" stroke-width="1.5" />

    <!-- KPI 1 -->
    <g transform="translate(40, 24)">
      <text x="0" y="20" font-size="12" font-weight="700" fill="#64748b" letter-spacing="1">PRIMARY INBOX RATE</text>
      <text x="0" y="58" font-size="34" font-weight="800" fill="#10b981" class="mono">&gt; 99.2%</text>
      <text x="160" y="48" font-size="12" font-weight="500" fill="#10b981">&#x2713; Google &amp; M365</text>
    </g>

    <!-- Divider -->
    <line x1="380" y1="20" x2="380" y2="86" stroke="#1e293b" stroke-width="1.5" />

    <!-- KPI 2 -->
    <g transform="translate(420, 24)">
      <text x="0" y="20" font-size="12" font-weight="700" fill="#64748b" letter-spacing="1">HARD BOUNCE CEILING</text>
      <text x="0" y="58" font-size="34" font-weight="800" fill="#38bdf8" class="mono">&lt; 2.0%</text>
      <text x="135" y="48" font-size="12" font-weight="500" fill="#94a3b8">Apollo verified</text>
    </g>

    <!-- Divider -->
    <line x1="720" y1="20" x2="720" y2="86" stroke="#1e293b" stroke-width="1.5" />

    <!-- KPI 3 -->
    <g transform="translate(760, 24)">
      <text x="0" y="20" font-size="12" font-weight="700" fill="#64748b" letter-spacing="1">SPAM COMPLAINT RATE</text>
      <text x="0" y="58" font-size="34" font-weight="800" fill="#f43f5e" class="mono">&lt; 0.1%</text>
      <text x="135" y="48" font-size="12" font-weight="500" fill="#94a3b8">MxToolbox 0-Audit</text>
    </g>
  </g>

  <!-- ==================== FOOTER BRANDING ==================== -->
  <text x="68" y="1136" font-size="14" font-weight="700" fill="#ffffff">Willay Haider</text>
  <text x="170" y="1136" font-size="14" font-weight="500" fill="#475569">|  B2B Outbound Sales Infrastructure &amp; Technical Architecture</text>
  <text x="1132" y="1136" font-size="13" font-weight="600" fill="#10b981" text-anchor="end">Save &amp; Implement &#x2192;</text>
</svg>
